<svg width="32.000000" height="32.000000" viewBox="0 0 32 32" fill="none" xmlns="http://www.w3.org/2000/svg" xmlns:xlink="http://www.w3.org/1999/xlink">
	<desc>
			Created with Pixso.
	</desc>
	<defs>
		<clipPath id="clip15_45">
			<rect id="collections" width="32.000000" height="32.000000" fill="white" fill-opacity="0"/>
		</clipPath>
	</defs>
	<g clip-path="url(#clip15_45)">
		<path id="Vector" d="M29.3334 21.3335L29.3334 5.3335C29.3334 3.8667 28.1334 2.66675 26.6667 2.66675L10.6667 2.66675C9.20007 2.66675 8.00012 3.8667 8.00012 5.3335L8.00012 21.3335C8.00012 22.8 9.20007 24 10.6667 24L26.6667 24C28.1334 24 29.3334 22.8 29.3334 21.3335ZM14.6667 16L17.3734 19.6135L21.3334 14.6667L26.6667 21.3335L10.6667 21.3335L14.6667 16ZM2.66675 8L2.66675 26.6667C2.66675 28.1333 3.8667 29.3335 5.33337 29.3335L24.0001 29.3335L24.0001 26.6667L5.33337 26.6667L5.33337 8L2.66675 8Z" fill="#F8F200" fill-opacity="1.000000" fill-rule="nonzero"/>
	</g>
</svg>
