<svg width="32.000000" height="32.000000" viewBox="0 0 32 32" fill="none" xmlns="http://www.w3.org/2000/svg" xmlns:xlink="http://www.w3.org/1999/xlink">
	<desc>
			Created with Pixso.
	</desc>
	<defs/>
	<path id="Vector" d="M25.3334 4L6.66663 4C5.18665 4 4 5.19995 4 6.66675L4 25.3333C4 26.8 5.18665 28 6.66663 28L25.3334 28C26.8 28 28 26.8 28 25.3333L28 6.66675C28 5.19995 26.8134 4 25.3334 4ZM25.3334 25.3333L6.66663 25.3333L6.66663 9.33325L25.3334 9.33325L25.3334 25.3333ZM22.6666 16L9.33337 16L9.33337 13.3333L22.6666 13.3333L22.6666 16ZM17.3334 21.3333L9.33337 21.3333L9.33337 18.6667L17.3334 18.6667L17.3334 21.3333Z" fill="#F8F200" fill-opacity="1.000000" fill-rule="nonzero"/>
</svg>
